<svg xmlns="http://www.w3.org/2000/svg" version="1.0" preserveAspectRatio="xMidYMid meet" viewBox="10.33 33 289.67 177">
<metadata>
Created by potrace 1.10, written by Peter Selinger 2001-2011
</metadata>
<g transform="translate(0.000000,239.000000) scale(0.100000,-0.100000)" fill="#000000" stroke="none">
<path d="M110 2035 l0 -25 790 0 c789 0 790 0 790 -20 0 -59 -69 -319 -92 -347 -8 -10 -171 -13 -753 -13 -722 0 -743 -1 -738 -19 6 -24 56 -31 219 -31 l124 0 0 -190 0 -190 -168 0 c-93 0 -171 -3 -174 -6 -3 -3 -4 -14 -1 -25 5 -18 15 -19 174 -19 l169 0 0 -190 0 -190 -176 0 c-157 0 -175 -2 -170 -16 3 -9 6 -20 6 -25 0 -5 299 -10 729 -11 l729 -3 -34 -58 c-36 -61 -42 -95 -22 -115 8 -8 59 -12 165 -12 l153 0 0 -60 0 -59 -82 -3 -83 -3 0 -30 -1 -30 -777 -3 -777 -2 0 -25 0 -25 1445 0 1445 0 0 25 0 25 -384 0 -385 0 -3 33 -3 32 -82 3 -83 3 0 49 c0 28 0 53 0 58 0 4 37 9 82 12 l83 5 3 38 3 37 -84 0 c-80 0 -85 1 -90 23 -3 12 -4 33 -2 47 2 14 4 28 4 33 1 4 213 7 471 7 l470 0 0 25 0 25 -472 2 -473 3 -5 70 c-5 66 -7 70 -30 73 -19 2 -44 -15 -103 -69 -50 -46 -90 -74 -112 -79 -19 -4 -35 -6 -35 -3 0 2 58 77 130 166 94 118 130 169 130 190 l0 27 485 0 485 0 0 25 0 25 -385 0 -385 0 0 35 0 34 -87 3 -88 3 -3 57 -3 57 88 3 88 3 0 40 0 40 -85 3 -85 3 3 49 4 50 469 0 469 0 0 25 0 25 -469 0 -469 0 -8 77 c-7 60 -13 79 -25 81 -9 2 -45 -21 -79 -50 -34 -29 -76 -66 -95 -81 -21 -19 -41 -27 -58 -25 -24 3 -17 13 104 163 94 117 129 167 129 188 l0 27 485 0 485 0 0 25 0 25 -1445 0 -1445 0 0 -25z m705 -645 l0 -185 -67 -3 -68 -3 0 191 0 191 68 -3 67 -3 0 -185z m720 133 c-36 -60 -44 -100 -23 -121 8 -8 59 -12 165 -12 l153 0 0 -60 0 -59 -82 -3 -83 -3 0 -30 -1 -30 -307 -3 -307 -2 0 190 0 190 260 0 259 0 -34 -57z m295 7 l0 -50 -96 0 -96 0 44 50 c41 47 45 49 96 50 l52 0 0 -50z m-1014 -404 c3 -13 4 -97 2 -187 l-3 -164 -68 -3 -67 -3 0 191 0 190 65 0 c60 0 65 -2 71 -24z m874 0 c0 -42 -29 -167 -61 -263 l-31 -93 -274 0 -274 0 0 190 0 190 320 0 320 0 0 -24z m138 -458 l-3 -53 -92 -3 c-51 -1 -93 0 -93 4 0 3 19 28 43 54 40 47 44 49 95 50 l53 0 -3 -52z"/>
</g>
</svg>