<svg xmlns="http://www.w3.org/2000/svg" version="1.0" preserveAspectRatio="xMidYMid meet" viewBox="0 0 300 340">
<metadata>
Created by potrace 1.10, written by Peter Selinger 2001-2011
</metadata>
<g transform="translate(0.000000,340.000000) scale(0.100000,-0.100000)" fill="#000000" stroke="none">
<path d="M0 3335 l0 -65 1058 -2 c581 -1 1072 -2 1090 -3 l32 0 0 -343 0 -343 -77 1 c-43 1 -534 2 -1090 1 l-1013 -1 0 -65 0 -65 1090 0 1090 0 0 -340 0 -340 -1090 0 -1090 0 0 -65 c0 -45 4 -65 13 -66 6 -1 313 0 682 1 369 1 853 -1 1078 -5 l407 -8 0 -338 0 -339 -1090 0 -1090 0 0 -65 0 -65 1090 0 1090 0 0 -340 0 -340 -1090 0 -1090 0 0 -70 0 -70 1500 0 1500 0 0 1700 0 1700 -1500 0 -1500 0 0 -65z m2588 -414 l2 -341 -135 0 -135 0 0 338 c0 186 3 342 7 346 4 4 64 5 133 3 l125 -4 3 -342z m2 -811 l0 -340 -135 0 -135 0 0 340 0 340 135 0 135 0 0 -340z m0 -820 l0 -340 -135 0 -135 0 0 340 0 340 135 0 135 0 0 -340z m0 -810 l0 -340 -135 0 -135 0 0 340 0 340 135 0 135 0 0 -340z"/>
</g>
</svg>